<svg xmlns="http://www.w3.org/2000/svg" viewBox="0 0 192.2 22.73"><title>AboutSarah</title><g id="Layer_2" data-name="Layer 2"><g id="Layer_1-2" data-name="Layer 1"><path d="M23.25,21.7v.65H11.84V21.7H14l-1.74-6.17H5.89L5,18.95c-.53,2,.16,2.76,1.61,2.76H7.78v.65H0V21.7H1.05c1.55,0,2.48-1.24,2.91-2.88L9.05.59h5.8L21.21,21.7ZM12.09,14.82l-3-10.73L6.11,14.82Z"/><path d="M41.48,14.73c0,5.58-3.38,8-6.51,8-2.14,0-3.63-.62-4.46-2.48v2.11H22.79v-.59h1.83V.65H22.79V0h7.72V9.24c.84-1.86,2.36-2.48,4.56-2.48C38.07,6.76,41.48,9.15,41.48,14.73Zm-6.36,0c0-4.9-1.12-6.08-2.36-6.08s-2.39,1.46-2.39,6.08,1.05,6.11,2.39,6.11S35.13,19.63,35.13,14.73Z"/><path d="M43.65,14.73c0-5.71,4.81-8,8.59-8s8.53,2.26,8.53,8-4.74,8-8.53,8S43.65,20.46,43.65,14.73Zm10.85,0c0-5.36-.74-7.29-2.26-7.29s-2.29,1.92-2.29,7.29S50.69,22,52.24,22,54.5,20.12,54.5,14.73Z"/><path d="M81.19,21.77v.59H73.44V19.78a5.8,5.8,0,0,1-5.3,2.95c-2.76,0-4.31-1.55-4.31-4.37V7.75H62V7.13h7.75V18.51c0,1.21.56,1.77,1.49,1.77s1.8-.68,2.2-2V7.75H72V7.13h7.29V21.77Z"/><path d="M93.37,17.3c-.37,3.78-1,5.43-4.71,5.43-2.88,0-4.93-1.05-4.93-5.4V7.84H81.34V7.13h2.39V2.29h5.92V7.13H93v.71H89.65V19.13c0,1.83.34,2.36,1.09,2.36,1,0,1.61-1.05,2-4.22Z"/><path d="M105.21,21.27a2.24,2.24,0,0,0-2.14,1.3h-.53l-.12-7.91H103c2.26,5.15,5.18,7.32,8.28,7.32,2.26,0,3.44-1.18,3.44-2.92,0-2.08-1.61-3.41-5.92-5-4-1.52-6.42-3.5-6.42-7.38,0-5.12,4.31-6.32,7-6.32s4.06,1.21,5.46,1.21A1.59,1.59,0,0,0,116.5.4h.56L117,7.13h-.56c-1.18-3-3.38-6.14-6.91-6.14-2,0-3.38,1-3.38,2.76,0,2,1.77,2.91,5.52,4.34,4.09,1.49,6.73,3.22,6.73,7.66,0,5.27-3.75,7-7,7C108.32,22.73,106.73,21.27,105.21,21.27Z"/><path d="M138.11,17.71c0,3.07-.68,5-4.19,5-2.33,0-3.63-.81-4.09-2.48-.5,1.43-1.83,2.48-4.71,2.48s-4.81-1.21-4.81-4c0-3.26,2.39-4.56,9.33-5v-3.1c0-2.36-1.52-3-3.35-3a4.91,4.91,0,0,0-3.53,1.27,2.67,2.67,0,0,1,1.12-.22,2.17,2.17,0,0,1,2.45,2.2,2.34,2.34,0,0,1-2.57,2.36,2.27,2.27,0,0,1-2.51-2.42c0-2.26,2-4.06,6.7-4.06,5.08,0,7.6,1.89,7.6,5.64V20c0,.78.31,1.12.74,1.12.68,0,1.15-.9,1.21-3.38Zm-8.46.5V14.45c-2.23.31-3.44,1-3.44,3.75,0,2,.62,2.76,1.61,2.76S129.64,20,129.64,18.2Z"/><path d="M153.82,10.33c0,2.11-1.15,3.22-2.82,3.22a2.44,2.44,0,0,1-2.64-2.48,2.4,2.4,0,0,1,2.57-2.48,2.47,2.47,0,0,1,2.2,1.21,2.64,2.64,0,0,0-2.82-2.42c-2.17,0-4,1.8-4,5.27v9.08h2.54v.62H138.57v-.62h1.86v-14h-1.86V7.13h7.75V9.64a4.07,4.07,0,0,1,4-2.88A3.28,3.28,0,0,1,153.82,10.33Z"/><path d="M172.52,17.71c0,3.07-.68,5-4.19,5-2.33,0-3.63-.81-4.09-2.48-.5,1.43-1.83,2.48-4.71,2.48s-4.81-1.21-4.81-4c0-3.26,2.39-4.56,9.33-5v-3.1c0-2.36-1.52-3-3.35-3a4.91,4.91,0,0,0-3.53,1.27,2.67,2.67,0,0,1,1.12-.22,2.17,2.17,0,0,1,2.45,2.2,2.34,2.34,0,0,1-2.57,2.36,2.27,2.27,0,0,1-2.51-2.42c0-2.26,2-4.06,6.7-4.06,5.08,0,7.6,1.89,7.6,5.64V20c0,.78.31,1.12.74,1.12.68,0,1.15-.9,1.21-3.38Zm-8.46.5V14.45c-2.23.31-3.44,1-3.44,3.75,0,2,.62,2.76,1.61,2.76S164.05,20,164.05,18.2Z"/><path d="M192.2,21.74v.62h-8.71v-.62h1V11c0-1.21-.59-1.8-1.49-1.8s-1.74.71-2.23,2.08V21.74h1.21v.62h-9v-.62h1.86V.62H173V0h7.75V9.74a5.77,5.77,0,0,1,5.33-3c2.76,0,4.28,1.52,4.28,4.37v10.6Z"/></g></g></svg>