<svg xmlns="http://www.w3.org/2000/svg" viewBox="0 0 212.286 26.879">
  <defs>
    <style>
      .cls-1 {
        fill: #ffe625;
      }
    </style>
  </defs>
  <g id="Ресурс_4" data-name="Ресурс 4" transform="translate(0.02 -0.027)">
    <g id="Слой_1" data-name="Слой 1" transform="translate(-0.02 0.027)">
      <path id="Path_278" data-name="Path 278" class="cls-1" d="M25.708,6.069c2.842-1.208,6.068-4.434,9.948-4.334A367.359,367.359,0,0,1,93.559.718,471.8,471.8,0,0,1,150.4,7.824l61.882,8.953c-2.942-.313-5.862-.874-8.8-1.293-1.471-.213-2.949-.4-4.427-.49a31.514,31.514,0,0,0-4.484.064l-8.854.81-8.647.838c-5.684.561-11.426,1.329-17.423,2.132-10.85,1.421-24,4.7-36.054,3.24-3.8-.476-7.34-.775-10.6-1.016s-6.26-.426-8.974-.476c-5.429-.128-9.728-.085-12.847.128-6.232.412-7.731,1.1-4.086,1.03a15.61,15.61,0,0,0-6.608,1.982,31.458,31.458,0,0,1-6.53,2.8,40.651,40.651,0,0,1-7.155.348,65.249,65.249,0,0,1-6.907-.576c-2.274-.284-4.519-.661-6.75-.981s-4.441-.6-6.644-.76c-1.18.6-4.832,1.421-6.125,1.08-2.885-.519-5.684-1.144-8.527-1.776s-5.684-1.286-8.591-1.8-5.919-.988-9.067-1.279a75.986,75.986,0,0,0-9.919-.163l2.38-1.421L0,17.772A113.172,113.172,0,0,1,12.286,11.7C16.755,9.8,21.388,7.973,25.708,6.069Z" transform="translate(0 -0.027)"/>
    </g>
  </g>
</svg>
