<svg xmlns="http://www.w3.org/2000/svg" xmlns:xlink="http://www.w3.org/1999/xlink" viewBox="0 0 359.71 38.9"><defs><style>.cls-1{fill:none;}.cls-2{clip-path:url(#clip-path);}.cls-3{fill:#231f20;}</style><clipPath id="clip-path"><rect class="cls-1" width="359.71" height="38.9"/></clipPath></defs><title>SarahRomeo_1</title><g id="Layer_2" data-name="Layer 2"><g id="Layer_1-2" data-name="Layer 1"><g class="cls-2"><path class="cls-3" d="M344.39,37.74c-2.44,0-3.34-3.23-3.34-12.61s.9-12.61,3.34-12.61,3.23,3.23,3.23,12.61-.85,12.61-3.23,12.61m0,1.17c6.73,0,15.32-3.76,15.32-13.78s-8.59-13.83-15.32-13.83S329,15.1,329,25.12s8.64,13.78,15.37,13.78M312.06,12.56c1.85,0,2.81,1.85,2.86,10.55h-5.57c.05-8.8.9-10.55,2.7-10.55m13,16.85c-1.43,4.19-4.77,6.84-8.64,6.84-4.4,0-6.94-3.39-7-11.61H326V23.11c0-8.11-6.31-11.82-13.83-11.82s-14.95,4.13-14.95,13.57,7.47,14,15.53,14c7.31,0,11.77-3.55,13.46-9Zm-31.9,7.79V19.08c0-5.14-2.65-7.79-7.37-7.79-4.13,0-7.95,1.8-9.75,5.41-.74-3.55-3.23-5.41-7.21-5.41s-7.47,1.54-9.33,4.82V12H245.12v1h3V37.21h-3v1.06h16V37.21h-1.64V18.55a3.76,3.76,0,0,1,3.29-2.6c1.17,0,2.07.8,2.07,2.86V37.21H263.2v1.06h14.58V37.21h-1.54V19a3.93,3.93,0,0,1,3.5-3c1.22,0,2,.74,2,2.91V37.21h-1.59v1.06h16V37.21Zm-64.34.53c-2.44,0-3.34-3.23-3.34-12.61s.9-12.61,3.34-12.61S232,15.74,232,25.12s-.85,12.61-3.23,12.61m0,1.17c6.73,0,15.32-3.76,15.32-13.78s-8.59-13.83-15.32-13.83-15.37,3.82-15.37,13.83S222.07,38.9,228.8,38.9M188.41,2.28c3.29,0,5.72,2.28,5.72,8.75s-2.28,8.64-5.41,8.64h-2.23V2.28Zm22.84,29.36c-.64,2-1.64,3.6-3.13,3.6-2.12,0-2.49-1.59-2.49-6.15-.11-6.15-4.88-8.48-12.14-8.8,8.8-.48,13-3.18,13-9.54,0-7-5.51-9.54-15.48-9.54H170.5V2.28h4V37.21h-4v1.06h20.3V37.21h-4.29V20.83h2.23c3.34,0,4.4,1.8,4.82,9.54.26,5.83,2.6,8.53,9.22,8.53,5.67,0,8.27-2.81,9.38-7Zm-56.13,5.57V18.87c0-4.82-2.49-7.58-7.37-7.58-4.08,0-7.63,1.8-9.38,5.14V0H124V1.06h3V37.21h-3v1.06h16.22V37.21h-1.85V19.13c.74-2,1.7-3.18,3.23-3.18,1.32,0,2.17.9,2.17,2.6V37.21h-1.33v1.06H158.2V37.21Zm-49.39-1.64c-1.43,0-2.39-1.17-2.39-4.66,0-4.77,1.86-5.78,4.93-6.25v6.41c0,3.07-1,4.5-2.54,4.5m17-5.72c-.11,4.4-.9,6-2,6-.64,0-1.11-.53-1.11-1.7V21.36c0-6.68-4.61-10.07-13.94-10.07-8.64,0-12.14,3.18-12.14,7.1,0,2.91,1.91,4.45,4.61,4.45,2.92,0,4.82-1.8,4.82-4.4s-1.85-4.08-4.56-4.08a8.19,8.19,0,0,0-1.64.21,9.22,9.22,0,0,1,5.67-1.7c3,0,5.78,1,5.78,5v5.51C95.93,24.06,92,26.24,92,31.85c0,4.93,3.18,7,8.43,7,5.09,0,7.31-1.8,8.22-4.19.85,2.76,3.13,4.19,7.42,4.19,6.68,0,7.74-3.55,7.74-9.06ZM84.32,11.29a7.17,7.17,0,0,0-7,5V12H63v1h3V37.21H63v1.06H81.67V37.21H77.33V21.57c0-6.15,3.29-9.17,7-9.17,2,0,4.61.8,5.09,4.72a4.44,4.44,0,0,0-4.24-2.65,4.49,4.49,0,0,0-4.77,4.61c0,2.76,2,4.56,4.88,4.56,3.07,0,5.35-2,5.35-5.94,0-4.66-3.13-6.41-6.36-6.41M44.68,35.56c-1.43,0-2.38-1.17-2.38-4.66,0-4.77,1.85-5.78,4.93-6.25v6.41c0,3.07-1,4.5-2.54,4.5m17-5.72c-.11,4.4-.9,6-2,6-.64,0-1.11-.53-1.11-1.7V21.36c0-6.68-4.61-10.07-13.94-10.07-8.64,0-12.14,3.18-12.14,7.1,0,2.91,1.91,4.45,4.61,4.45,2.91,0,4.82-1.8,4.82-4.4s-1.85-4.08-4.56-4.08a8.19,8.19,0,0,0-1.64.21,9.22,9.22,0,0,1,5.67-1.7c3,0,5.78,1,5.78,5v5.51C34.87,24.06,31,26.24,31,31.85c0,4.93,3.18,7,8.43,7,5.09,0,7.31-1.8,8.22-4.19.85,2.76,3.13,4.19,7.42,4.19,6.68,0,7.74-3.55,7.74-9.06ZM16.11,38.9c5.78,0,12.51-2.86,12.51-12.35,0-7.79-4.5-10.76-11.82-13.36C10,10.81,7.1,9.38,7.1,6.1c0-2.86,2.17-4.4,5.72-4.4,6.36,0,10,5.72,12.19,10.49h1L26.08.64h-.9a2.89,2.89,0,0,1-3,1.85c-2.54,0-5-1.91-9.54-1.91C7.95.58,0,2.49,0,11.82,0,18.55,4.24,22.15,11.34,24.7c7.9,2.81,10.39,5.14,10.39,8.37,0,2.86-2,4.61-5.72,4.61-5.35,0-10.44-3.87-14.79-12.61H.16L.42,38.64h.9a4.4,4.4,0,0,1,4.08-2.17c2.65,0,5.51,2.44,10.71,2.44"/></g></g></g></svg>