<svg xmlns="http://www.w3.org/2000/svg" xmlns:xlink="http://www.w3.org/1999/xlink" viewBox="0 0 555.33 50.19"><defs><style>.cls-1{fill:none;}.cls-2{clip-path:url(#clip-path);}.cls-3{fill:#231f20;}</style><clipPath id="clip-path" transform="translate(0 0)"><rect class="cls-1" width="555.33" height="50.19"/></clipPath></defs><title>SRDesign</title><g id="Layer_2" data-name="Layer 2"><g id="Layer_1-2" data-name="Layer 1"><g class="cls-2"><path class="cls-3" d="M552.31,39.38V21c0-4.82-2.49-7.58-7.42-7.58-4.08,0-7.68,1.86-9.38,5.19v-4.5H521.14v1h3V39.38h-3v1.06h16V39.38h-1.59v-18a3.76,3.76,0,0,1,3.39-3.23c1.22,0,2.07.9,2.07,2.6V39.38h-1.59v1.06h16V39.38ZM510,45.69c0,1.75-1.7,3.23-6.36,3.23-4.13,0-6.52-1.38-6.52-3.87a3.11,3.11,0,0,1,.74-1.8,45.09,45.09,0,0,0,4.88.26c5.72,0,7.26.42,7.26,2.17M503.71,31c-1.86,0-2.7-2.39-2.7-8.16s.85-8.21,2.7-8.21,2.81,2.38,2.81,8.21-.9,8.16-2.81,8.16m10.18-19.08a3.74,3.74,0,0,0,7.47,0c0-2.23-1.64-3.76-4.45-3.76a7,7,0,0,0-7,6.25,20.76,20.76,0,0,0-6.15-.9c-7,0-13.36,3.23-13.36,9.33,0,4.24,3.13,7,7.42,8.37-4.82,1-8.11,2.44-8.11,6,0,2.76,1.75,4.4,4.82,5.35-2.54.26-5.14,1.06-5.14,3.34,0,3.18,5.46,4.29,13.52,4.29s15.9-1.7,15.9-8.48c0-4.19-2.81-6.25-11.87-6.62-6.47-.27-9.22.21-9.22-1.59,0-1,.9-1.59,1.7-1.91a23.24,23.24,0,0,0,4.35.42c7.1,0,13.46-3.18,13.46-9.22,0-3.87-2.6-6.62-6.31-8.06a6,6,0,0,1,4.24-5.25,2.62,2.62,0,0,0-1.22,2.39M485.21,39.38V14.15H470.85v1.06h3V39.38h-3v1.06h17.38V39.38ZM479.27,11c3.71,0,6.57-2.23,6.57-5.46S483,0,479.27,0s-6.47,2.23-6.47,5.51S475.62,11,479.27,11m-20.51,30.1c4.88,0,10.6-2.49,10.6-9.65,0-6.1-4.13-8.37-10.34-10.34-4.29-1.27-6.78-1.91-6.78-3.87,0-1.7,1.8-2.6,3.87-2.6,3.76,0,7.53,3.07,10.12,6.84H467l.11-8h-.79A2.23,2.23,0,0,1,464,14.89c-2.07,0-4.24-1.43-8.16-1.43-5,0-10.23,2.44-10.23,8.9,0,4.5,2.44,8.16,9.27,10.07,6.15,1.7,8.06,2.6,8.06,4.77,0,1.91-1.54,2.65-4,2.65-4.13,0-9.75-4-12-8.32H446l-.16,9.22h1a3.47,3.47,0,0,1,3-1.64c1.85,0,4.61,2,8.9,2M429.14,14.73c1.86,0,2.81,1.85,2.86,10.55h-5.57c.05-8.8.9-10.55,2.7-10.55m13,16.85c-1.43,4.19-4.77,6.84-8.64,6.84-4.4,0-6.94-3.39-7-11.61h16.64V25.28c0-8.11-6.31-11.82-13.83-11.82S414.3,17.6,414.3,27s7.47,14,15.53,14c7.31,0,11.77-3.55,13.46-9Zm-51.52,7.74H389V4.51h1.59c4.82,0,7.47,5.19,7.47,17.38s-2.65,17.44-7.47,17.44m1.11-35.93H373.06V4.51h4V39.33h-4v1.11h18.66c10,0,19.45-4.4,19.45-18.55s-9.49-18.5-19.45-18.5M344.39,39.91c-2.44,0-3.34-3.23-3.34-12.61s.9-12.61,3.34-12.61,3.23,3.23,3.23,12.61-.85,12.61-3.23,12.61m0,1.17c6.73,0,15.32-3.76,15.32-13.78s-8.59-13.83-15.32-13.83S329,17.28,329,27.3s8.64,13.78,15.37,13.78M312.06,14.73c1.85,0,2.81,1.85,2.86,10.55h-5.57c.05-8.8.9-10.55,2.7-10.55m13,16.85c-1.43,4.19-4.77,6.84-8.64,6.84-4.4,0-6.94-3.39-7-11.61H326V25.28c0-8.11-6.31-11.82-13.83-11.82S297.22,17.6,297.22,27s7.47,14,15.53,14c7.31,0,11.77-3.55,13.46-9Zm-31.9,7.79V21.25c0-5.14-2.65-7.79-7.37-7.79-4.13,0-7.95,1.8-9.75,5.41-.74-3.55-3.23-5.41-7.21-5.41s-7.47,1.54-9.33,4.82V14.15H245.12v1h3V39.38h-3v1.06h16V39.38h-1.64V20.72a3.76,3.76,0,0,1,3.29-2.6c1.17,0,2.07.8,2.07,2.86V39.38H263.2v1.06h14.58V39.38h-1.54V21.15a3.93,3.93,0,0,1,3.5-3c1.22,0,2,.74,2,2.91V39.38h-1.59v1.06h16V39.38Zm-64.34.53c-2.44,0-3.34-3.23-3.34-12.61s.9-12.61,3.34-12.61S232,17.91,232,27.3s-.85,12.61-3.23,12.61m0,1.17c6.73,0,15.32-3.76,15.32-13.78s-8.59-13.83-15.32-13.83-15.37,3.82-15.37,13.83,8.64,13.78,15.37,13.78M188.41,4.45c3.29,0,5.72,2.28,5.72,8.74s-2.28,8.64-5.41,8.64h-2.23V4.45Zm22.84,29.36c-.64,2-1.64,3.6-3.13,3.6-2.12,0-2.49-1.59-2.49-6.15-.11-6.15-4.88-8.48-12.14-8.8,8.8-.48,13-3.18,13-9.54,0-7-5.51-9.54-15.48-9.54H170.5V4.45h4V39.38h-4v1.06h20.3V39.38h-4.29V23h2.23c3.34,0,4.4,1.8,4.82,9.54.26,5.83,2.6,8.53,9.22,8.53,5.67,0,8.27-2.81,9.38-7Zm-56.13,5.56V21c0-4.82-2.49-7.58-7.37-7.58-4.08,0-7.63,1.8-9.38,5.14V2.17H124V3.23h3V39.38h-3v1.06h16.22V39.38h-1.85V21.31c.74-2,1.7-3.18,3.23-3.18,1.32,0,2.17.9,2.17,2.6V39.38h-1.33v1.06H158.2V39.38Zm-49.39-1.64c-1.43,0-2.39-1.17-2.39-4.66,0-4.77,1.86-5.78,4.93-6.25v6.41c0,3.07-1,4.5-2.54,4.5m17-5.72c-.11,4.4-.9,6-2,6-.64,0-1.11-.53-1.11-1.7V23.53c0-6.68-4.61-10.07-13.94-10.07-8.64,0-12.14,3.18-12.14,7.1,0,2.91,1.91,4.45,4.61,4.45,2.92,0,4.82-1.8,4.82-4.4s-1.85-4.08-4.56-4.08a8.19,8.19,0,0,0-1.64.21,9.22,9.22,0,0,1,5.67-1.7c3,0,5.78,1,5.78,5V25.6C95.93,26.24,92,28.41,92,34c0,4.93,3.18,7,8.43,7,5.09,0,7.31-1.8,8.22-4.19.85,2.76,3.13,4.19,7.42,4.19,6.68,0,7.74-3.55,7.74-9.06ZM84.32,13.46a7.17,7.17,0,0,0-7,5V14.15H63v1h3V39.38H63v1.06H81.67V39.38H77.33V23.74c0-6.15,3.29-9.17,7-9.17,2,0,4.61.79,5.09,4.72a4.44,4.44,0,0,0-4.24-2.65,4.49,4.49,0,0,0-4.77,4.61c0,2.76,2,4.56,4.88,4.56,3.07,0,5.35-2,5.35-5.94,0-4.66-3.13-6.41-6.36-6.41M44.68,37.74c-1.43,0-2.38-1.17-2.38-4.66,0-4.77,1.85-5.78,4.93-6.25v6.41c0,3.07-1,4.5-2.54,4.5m17-5.72c-.11,4.4-.9,6-2,6-.64,0-1.11-.53-1.11-1.7V23.53c0-6.68-4.61-10.07-13.94-10.07-8.64,0-12.14,3.18-12.14,7.1,0,2.91,1.91,4.45,4.61,4.45,2.91,0,4.82-1.8,4.82-4.4s-1.85-4.08-4.56-4.08a8.19,8.19,0,0,0-1.64.21,9.22,9.22,0,0,1,5.67-1.7c3,0,5.78,1,5.78,5V25.6C34.87,26.24,31,28.41,31,34c0,4.93,3.18,7,8.43,7,5.09,0,7.31-1.8,8.22-4.19.85,2.76,3.13,4.19,7.42,4.19,6.68,0,7.74-3.55,7.74-9.06ZM16.11,41.08c5.78,0,12.51-2.86,12.51-12.35,0-7.79-4.5-10.76-11.82-13.36C10,13,7.1,11.55,7.1,8.27c0-2.86,2.17-4.4,5.72-4.4,6.36,0,10,5.72,12.19,10.49h1l.05-11.55h-.9a2.89,2.89,0,0,1-3,1.85c-2.54,0-5-1.91-9.54-1.91C7.95,2.76,0,4.66,0,14c0,6.73,4.24,10.33,11.34,12.88,7.9,2.81,10.39,5.14,10.39,8.37,0,2.86-2,4.61-5.72,4.61C10.65,39.86,5.56,36,1.22,27.24H.16L.42,40.81h.9a4.4,4.4,0,0,1,4.08-2.17c2.65,0,5.51,2.44,10.71,2.44" transform="translate(0 0)"/></g></g></g></svg>